<?xml version="1.0" standalone="no"?>
<!DOCTYPE svg PUBLIC "-//W3C//DTD SVG 20010904//EN"
 "http://www.w3.org/TR/2001/REC-SVG-20010904/DTD/svg10.dtd">
<svg version="1.0" xmlns="http://www.w3.org/2000/svg"
 width="700.000000pt" height="700.000000pt" viewBox="0 0 700.000000 700.000000"
 preserveAspectRatio="xMidYMid meet">
<metadata>
Created by potrace 1.14, written by Peter Selinger 2001-2017
</metadata>
<g transform="translate(0.000000,700.000000) scale(0.100000,-0.100000)"
fill="#000000" stroke="none">
<path d="M0 3500 l0 -3500 3500 0 3500 0 0 3500 0 3500 -3500 0 -3500 0 0
-3500z m3376 1250 c172 -43 346 -156 449 -292 l50 -65 80 4 c170 10 329 -51
450 -172 101 -101 175 -254 175 -362 0 -27 5 -36 28 -45 15 -6 74 -33 131 -60
94 -45 114 -60 200 -147 126 -126 184 -226 228 -392 22 -85 22 -279 0 -371
-74 -304 -308 -536 -609 -602 l-28 -6 0 573 c0 571 0 574 21 593 69 62 64 161
-12 215 -60 42 -155 22 -193 -41 -32 -55 -14 -149 34 -183 20 -14 20 -23 18
-526 l-3 -511 -132 105 -133 105 0 200 c0 192 1 200 21 211 31 16 62 93 54
132 -23 106 -143 149 -225 81 -60 -51 -63 -157 -5 -202 l25 -20 0 -228 c0
-126 4 -234 8 -239 4 -6 70 -60 147 -120 77 -60 153 -119 168 -132 l29 -23
-391 0 -391 0 0 453 0 452 193 151 192 150 3 154 3 153 33 37 c56 63 59 133 7
189 -40 42 -98 56 -150 35 -97 -39 -118 -156 -41 -229 30 -29 30 -29 30 -147
l0 -118 -132 -105 -133 -105 -3 331 -2 331 30 34 c35 40 45 72 37 121 -10 58
-74 113 -132 113 -39 0 -98 -34 -117 -68 -10 -17 -18 -50 -18 -76 0 -38 6 -52
35 -85 l35 -38 0 -512 0 -511 -130 103 -130 102 0 207 c0 190 1 208 18 217 30
16 56 84 48 126 -15 76 -97 130 -170 111 -41 -10 -85 -55 -96 -97 -14 -51 -1
-95 40 -134 l30 -29 0 -232 0 -231 195 -153 195 -153 0 -273 0 -274 -85 0 -85
0 0 169 0 169 -183 146 -183 146 4 38 c3 26 -3 47 -20 72 -79 118 -251 70
-251 -70 0 -78 56 -131 139 -134 38 -1 58 -14 203 -126 l161 -125 0 -142 0
-143 -294 0 c-161 0 -314 3 -340 6 l-46 7 0 463 c0 442 1 464 19 473 24 13 51
71 51 111 0 61 -54 125 -110 130 -64 6 -83 -1 -121 -39 -35 -34 -39 -44 -39
-87 0 -51 27 -110 55 -120 13 -5 15 -65 15 -446 l0 -439 -22 6 c-45 14 -144
75 -209 128 -122 101 -220 260 -261 420 -17 68 -20 103 -16 221 4 124 8 151
35 228 77 221 245 403 454 492 l65 27 -9 72 c-10 86 4 215 34 314 87 280 320
496 604 558 95 21 277 19 371 -5z m169 -586 c23 -9 48 -62 41 -90 -13 -50 -70
-77 -121 -58 -19 8 -45 55 -45 84 0 48 71 84 125 64z m410 -229 c75 -74 -35
-185 -112 -113 -50 47 -12 138 57 138 19 0 40 -9 55 -25z m-806 -190 c31 -16
41 -33 41 -74 0 -61 -62 -96 -118 -67 -59 31 -58 109 3 144 27 15 41 15 74 -3z
m1359 -171 c32 -22 43 -57 31 -94 -13 -36 -36 -50 -83 -50 -25 0 -40 7 -55 26
-60 76 29 173 107 118z m-2065 -224 c68 -54 21 -153 -68 -141 -11 1 -30 13
-42 27 -66 73 32 175 110 114z m1686 -206 c28 -36 27 -79 -4 -109 -49 -50
-135 -17 -135 53 0 50 32 82 81 82 29 0 42 -6 58 -26z m-1302 -186 c33 -31 32
-90 -3 -117 -36 -28 -79 -27 -109 4 -31 30 -32 73 -4 109 27 34 82 36 116 4z"/>
</g>
</svg>
