<svg xmlns="http://www.w3.org/2000/svg" xmlns:xlink="http://www.w3.org/1999/xlink" width="500" zoomAndPan="magnify" viewBox="0 0 375 374.999991" height="500" preserveAspectRatio="xMidYMid meet" version="1.0"><defs><clipPath id="2a279f9bdf"><path d="M 97.1875 119.199219 L 277.9375 119.199219 L 277.9375 255.699219 L 97.1875 255.699219 Z M 97.1875 119.199219 " clip-rule="nonzero"/></clipPath></defs><rect x="-37.5" width="450" fill="#ffffff" y="-37.499999" height="449.999989" fill-opacity="1"/><rect x="-37.5" width="450" fill="#ffffff" y="-37.499999" height="449.999989" fill-opacity="1"/><rect x="-37.5" width="450" fill="#2c344e" y="-37.499999" height="449.999989" fill-opacity="1"/><g clip-path="url(#2a279f9bdf)"><path fill="#e4eaff" d="M 213.402344 167.226562 C 213.402344 164.765625 211.40625 162.773438 208.941406 162.773438 C 206.480469 162.773438 204.480469 164.765625 204.480469 167.226562 C 204.480469 169.6875 206.480469 171.679688 208.941406 171.679688 C 211.40625 171.679688 213.402344 169.6875 213.402344 167.226562 Z M 217.984375 204.945312 C 215.519531 204.945312 213.523438 206.9375 213.523438 209.398438 C 213.523438 211.859375 215.519531 213.855469 217.984375 213.855469 C 220.449219 213.855469 222.445312 211.859375 222.445312 209.398438 C 222.445312 206.9375 220.449219 204.945312 217.984375 204.945312 Z M 145.339844 216.417969 C 143.597656 218.160156 143.597656 220.980469 145.339844 222.71875 C 147.082031 224.457031 149.90625 224.457031 151.648438 222.71875 C 153.390625 220.980469 153.390625 218.160156 151.648438 216.417969 C 149.90625 214.679688 147.082031 214.679688 145.339844 216.417969 Z M 166.644531 173.71875 C 164.183594 173.71875 162.183594 175.710938 162.183594 178.171875 C 162.183594 180.632812 164.183594 182.625 166.644531 182.625 C 169.109375 182.625 171.105469 180.632812 171.105469 178.171875 C 171.105469 175.710938 169.109375 173.71875 166.644531 173.71875 Z M 266.960938 183.523438 C 261.265625 177.089844 253.851562 172.503906 245.667969 170.277344 C 245.105469 153.078125 230.921875 139.257812 213.566406 139.257812 C 211.550781 139.257812 209.558594 139.441406 207.601562 139.8125 C 204.222656 134.410156 199.699219 129.792969 194.304688 126.285156 C 187.199219 121.664062 178.941406 119.21875 170.425781 119.21875 C 146.269531 119.21875 126.617188 138.84375 126.617188 162.96875 C 126.617188 165.648438 126.859375 168.304688 127.339844 170.910156 C 119.816406 173.378906 113.039062 177.871094 107.800781 183.9375 C 100.957031 191.867188 97.1875 202.003906 97.1875 212.488281 C 97.1875 212.789062 97.191406 213.089844 97.195312 213.390625 C 97.5625 231.308594 108.96875 246.421875 124.792969 252.632812 L 124.792969 205.398438 C 122.453125 204.160156 120.859375 201.707031 120.859375 198.878906 C 120.859375 194.710938 124.324219 191.351562 128.53125 191.511719 C 132.335938 191.65625 135.445312 194.734375 135.617188 198.535156 C 135.753906 201.507812 134.125 204.113281 131.691406 205.398438 L 131.691406 254.699219 C 134.648438 255.328125 137.707031 255.660156 140.835938 255.660156 L 168.476562 255.660156 L 168.476562 240.515625 L 150.667969 226.613281 C 148.140625 227.390625 145.273438 226.78125 143.273438 224.78125 C 140.320312 221.835938 140.390625 217.015625 143.480469 214.15625 C 146.273438 211.570312 150.652344 211.554688 153.464844 214.117188 C 155.664062 216.121094 156.359375 219.113281 155.546875 221.742188 L 175.378906 237.660156 L 175.378906 255.660156 L 184.285156 255.660156 L 184.285156 226.222656 L 163.195312 209.6875 L 163.195312 184.691406 C 160.761719 183.402344 159.136719 180.800781 159.269531 177.828125 C 159.445312 174.027344 162.554688 170.949219 166.359375 170.804688 C 170.566406 170.644531 174.03125 174.003906 174.03125 178.171875 C 174.03125 181 172.433594 183.453125 170.097656 184.691406 L 170.097656 206.335938 L 184.285156 217.460938 L 184.285156 162.34375 C 181.945312 161.105469 180.351562 158.652344 180.351562 155.824219 C 180.351562 151.660156 183.8125 148.300781 188.023438 148.457031 C 191.828125 148.601562 194.9375 151.683594 195.109375 155.480469 C 195.242188 158.449219 193.617188 161.054688 191.183594 162.34375 L 191.183594 198.40625 L 205.492188 187.183594 L 205.492188 173.742188 C 203.152344 172.507812 201.558594 170.050781 201.558594 167.226562 C 201.558594 163.058594 205.019531 159.699219 209.230469 159.855469 C 213.035156 160.003906 216.144531 163.082031 216.316406 166.882812 C 216.453125 169.851562 214.824219 172.457031 212.394531 173.742188 L 212.394531 190.53125 L 191.183594 207.164062 L 191.183594 255.660156 L 233.34375 255.660156 L 214.535156 240.914062 L 214.535156 215.917969 C 212.101562 214.632812 210.472656 212.027344 210.609375 209.054688 C 210.785156 205.257812 213.894531 202.179688 217.699219 202.03125 C 221.90625 201.871094 225.367188 205.230469 225.367188 209.398438 C 225.367188 212.226562 223.773438 214.683594 221.433594 215.917969 L 221.433594 237.5625 L 235.621094 248.6875 L 235.621094 193.570312 C 233.285156 192.332031 231.6875 189.878906 231.6875 187.050781 C 231.6875 182.886719 235.152344 179.523438 239.359375 179.683594 C 243.164062 179.828125 246.273438 182.910156 246.445312 186.707031 C 246.582031 189.679688 244.957031 192.28125 242.523438 193.570312 L 242.523438 255.027344 C 250.867188 253.589844 258.671875 249.722656 264.789062 243.734375 C 265 243.527344 265.207031 243.320312 265.414062 243.109375 C 273.488281 234.886719 277.9375 224.007812 277.9375 212.488281 C 277.9375 201.804688 274.039062 191.519531 266.960938 183.523438 Z M 128.242188 194.425781 C 125.777344 194.425781 123.78125 196.417969 123.78125 198.878906 C 123.78125 201.339844 125.777344 203.332031 128.242188 203.332031 C 130.707031 203.332031 132.703125 201.339844 132.703125 198.878906 C 132.703125 196.417969 130.707031 194.425781 128.242188 194.425781 Z M 187.734375 151.371094 C 185.269531 151.371094 183.273438 153.367188 183.273438 155.824219 C 183.273438 158.285156 185.269531 160.28125 187.734375 160.28125 C 190.195312 160.28125 192.195312 158.285156 192.195312 155.824219 C 192.195312 153.367188 190.195312 151.371094 187.734375 151.371094 Z M 239.070312 182.597656 C 236.609375 182.597656 234.613281 184.59375 234.613281 187.050781 C 234.613281 189.511719 236.609375 191.507812 239.070312 191.507812 C 241.535156 191.507812 243.53125 189.511719 243.53125 187.050781 C 243.53125 184.59375 241.535156 182.597656 239.070312 182.597656 " fill-opacity="1" fill-rule="nonzero"/></g></svg>